<svg version="1.1" xmlns="http://www.w3.org/2000/svg" xmlns:xlink="http://www.w3.org/1999/xlink" width="18" height="18" viewBox="0,0,256,256"><g fill="none" fill-rule="nonzero" stroke="#ff0000" stroke-width="1" stroke-linecap="none" stroke-linejoin="miter" stroke-miterlimit="10" stroke-dasharray="" stroke-dashoffset="0" font-family="none" font-weight="none" font-size="none" text-anchor="none" style="mix-blend-mode: normal"><g transform="translate(0,5.33333) scale(14.22222,14.22222)"><path d="M3.87414,7.61505c-0.06702,-0.87119 0.62181,-1.61505 1.49557,-1.61505h7.26029c0.8739,0 1.5627,0.74385 1.4957,1.61505l-0.5193,6.74995c-0.0601,0.7815 -0.7118,1.385 -1.4956,1.385h-6.22186c-0.7838,0 -1.43546,-0.6035 -1.49558,-1.385z" stroke-linecap="butt"></path><path d="M14.625,3.75h-11.25" stroke-linecap="round"></path><path d="M7.5,2.25c0,-0.41421 0.33577,-0.75 0.75,-0.75h1.5c0.4142,0 0.75,0.33579 0.75,0.75v1.5h-3z" stroke-linecap="butt"></path><path d="M10.5,9v3.75" stroke-linecap="round"></path><path d="M7.5,9v3.75" stroke-linecap="round"></path></g></g></svg>