<svg version="1.1" xmlns="http://www.w3.org/2000/svg" xmlns:xlink="http://www.w3.org/1999/xlink" width="18" height="18" viewBox="0,0,256,256"><g fill="none" fill-rule="nonzero" stroke="#000000" stroke-width="1" stroke-linecap="round" stroke-linejoin="round" stroke-miterlimit="10" stroke-dasharray="" stroke-dashoffset="0" font-family="none" font-weight="none" font-size="none" text-anchor="none" style="mix-blend-mode: normal"><g transform="translate(7.11111,-7.11109) scale(14.22222,14.22222)"><path d="M8.67272,5.99106l-6.67272,6.67264v3.3363h3.33636l6.67274,-6.67264M8.67272,5.99106l2.39268,-2.39269l0.0015,-0.00142c0.3293,-0.32936 0.4943,-0.49434 0.6845,-0.55613c0.1675,-0.05443 0.3479,-0.05443 0.5155,0c0.19,0.06175 0.3548,0.22653 0.6837,0.55543l1.4512,1.45113c0.3303,0.33031 0.4955,0.49554 0.5574,0.68599c0.0544,0.16751 0.0544,0.34796 0,0.51548c-0.0618,0.19031 -0.2268,0.35529 -0.5567,0.68513l-0.0007,0.0007l-2.3927,2.39268M8.67272,5.99106l3.33638,3.3363"></path></g></g></svg>